<svg width="38" height="39" viewBox="0 0 38 39" fill="none" xmlns="http://www.w3.org/2000/svg">
<g clip-path="url(#clip0_18479_27591)">
<path d="M34.3147 15.9974L37.3257 11.5627C36.8939 9.63644 36.0701 7.85868 34.9424 6.31686L21.3301 6.02637L12.2262 6.07275C10.4013 8.45874 9.31641 11.4408 9.31641 14.6766C9.31641 22.5061 15.6634 28.8532 23.493 28.8532C26.6333 28.8532 29.5346 27.8315 31.884 26.1033L34.3147 15.9974Z" fill="#B7EFFF"/>
<path d="M32.5455 23.3467C30.1593 26.4292 26.5306 28.5013 22.4102 28.8121C22.7671 28.8391 23.1278 28.8529 23.4916 28.8529C26.6319 28.8529 29.5332 27.8311 31.8826 26.1029L32.5455 23.3467Z" fill="#99E6FC"/>
<path d="M37.3255 11.5622C36.8937 9.63595 36.07 7.85818 34.9423 6.31636L32.7461 6.26953C34.4027 8.51547 35.4118 11.2679 35.4996 14.2515L37.3255 11.5622Z" fill="#99E6FC"/>
<path d="M34.2399 7.20181C34.5098 6.90827 34.7427 6.61295 34.9428 6.31682C32.364 2.79084 28.1965 0.5 23.4934 0.5C18.8997 0.5 14.8172 2.68552 12.2266 6.07272C12.6236 7.76082 13.4426 9.76265 15.0931 9.75233C17.9447 9.73445 19.5385 7.58552 22.6302 8.63801C25.722 9.69051 28.8899 13.0193 34.2399 7.20181Z" fill="#5DE1C4"/>
<path d="M33.7058 7.75867C33.8813 7.58284 34.059 7.39797 34.2394 7.20181C34.5094 6.90827 34.7423 6.61295 34.9423 6.31682C32.3634 2.79084 28.1959 0.5 23.4929 0.5C23.1324 0.5 22.7755 0.514992 22.4219 0.541414C27.2769 0.911246 31.4473 3.72703 33.7058 7.75867Z" fill="#0ED2B3"/>
<path d="M37.3265 11.5625C35.7388 11.4992 33.7682 11.7517 32.6821 13.144C30.6653 15.7296 32.3718 16.5052 30.4844 18.7805C29.5895 19.8593 29.2188 23.7809 31.8849 26.103C35.3932 23.5224 37.6704 19.3656 37.6704 14.6764C37.6704 13.6066 37.5511 12.5646 37.3265 11.5625Z" fill="#5DE1C4"/>
<path d="M37.3268 11.5625C36.6535 11.5356 35.9115 11.566 35.1972 11.7156C35.4001 12.6706 35.5078 13.6609 35.5078 14.6764C35.5078 18.7878 33.7569 22.4898 30.9609 25.0792C31.2173 25.4425 31.523 25.7876 31.8851 26.103C35.3934 23.5223 37.6707 19.3655 37.6707 14.6763C37.6707 13.6065 37.5513 12.5646 37.3268 11.5625Z" fill="#0ED2B3"/>
<path d="M34.0843 18.6567C33.7931 18.6567 33.5438 18.4359 33.5144 18.14C33.0814 13.7896 31.4501 10.3516 28.6659 7.92128C26.5847 6.1047 24.5983 5.55993 24.5786 5.55466C24.273 5.4731 24.0907 5.15945 24.1715 4.85374C24.2525 4.54796 24.5652 4.36538 24.8709 4.44569C24.9607 4.46921 27.0945 5.04515 29.3731 7.01648C31.4631 8.82452 34.076 12.2023 34.6556 18.0265C34.687 18.3417 34.457 18.6226 34.1418 18.6539C34.1225 18.6558 34.1033 18.6567 34.0843 18.6567Z" fill="#FF6470"/>
<path d="M22.917 5.38427C22.8389 5.38427 22.7594 5.36816 22.6834 5.33425C22.3942 5.20503 22.2646 4.86593 22.3938 4.57677L22.7943 3.68043C22.9234 3.39127 23.2624 3.26169 23.5518 3.39083C23.8409 3.52004 23.9706 3.85915 23.8414 4.1483L23.4409 5.04464C23.3456 5.25773 23.1363 5.38427 22.917 5.38427Z" fill="#574D56"/>
<path d="M34.868 20.3373H33.7648C33.4481 20.3373 33.1914 20.0805 33.1914 19.7638C33.1914 19.4472 33.4481 19.1904 33.7648 19.1904H34.868C35.1848 19.1904 35.4414 19.4472 35.4414 19.7638C35.4415 20.0805 35.1848 20.3373 34.868 20.3373Z" fill="#574D56"/>
<path d="M15.9303 14.1511C16.5688 12.8554 18.0369 12.1868 19.412 12.6296C19.9982 12.8184 20.6223 13.1179 21.2414 13.5822C23.6656 15.4005 24.8273 17.5216 24.3727 19.0368C23.9182 20.552 16.2919 22.52 14.3222 18.7583C12.7072 15.6738 14.9751 16.0897 15.9303 14.1511Z" fill="#5DE1C4"/>
<path d="M21.2391 13.5821C20.6201 13.1178 19.996 12.8182 19.4097 12.6294C18.5728 12.3599 17.7017 12.5027 17.0039 12.9474C17.3019 12.9437 17.6049 12.9873 17.9035 13.0835C18.4898 13.2723 19.1139 13.5718 19.7329 14.0361C22.1571 15.8544 23.3187 17.9755 22.8642 19.4907C22.7451 19.8879 22.1326 20.316 21.2589 20.6641C22.8887 20.3056 24.1907 19.6359 24.3704 19.0366C24.825 17.5215 23.6634 15.4003 21.2391 13.5821Z" fill="#0ED2B3"/>
<path d="M31.6583 28.3886H29.5693C29.2537 28.3886 28.9721 28.1905 28.8655 27.8935L28.6594 27.3196L25.2809 25.3219L23.1254 23.3242H19.4157C19.0027 23.3242 18.668 23.659 18.668 24.072V34.3347H31.6583C32.0712 34.3347 32.406 33.9999 32.406 33.587V29.1364C32.406 28.7234 32.0712 28.3886 31.6583 28.3886Z" fill="#82AEE3"/>
<path d="M31.6569 28.3887H30.0898C30.5029 28.3887 30.8376 28.7235 30.8376 29.1364V33.587C30.8376 34 30.5028 34.3347 30.0898 34.3347H31.6569C32.0699 34.3347 32.4047 33.9999 32.4047 33.587V29.1364C32.4047 28.7234 32.0699 28.3887 31.6569 28.3887Z" fill="#528FD8"/>
<path d="M24.6152 38.4999C26.2062 38.4999 27.496 37.2101 27.496 35.6191C27.496 34.0281 26.2062 32.7383 24.6152 32.7383C23.0242 32.7383 21.7344 34.0281 21.7344 35.6191C21.7344 37.2101 23.0242 38.4999 24.6152 38.4999Z" fill="#6C5E69"/>
<path d="M24.6156 32.7383C24.3096 32.7383 24.015 32.7864 23.7383 32.8748C24.9002 33.2459 25.7417 34.3341 25.7417 35.6191C25.7417 36.9041 24.9002 37.9922 23.7383 38.3634C24.015 38.4518 24.3096 38.4999 24.6156 38.4999C26.2066 38.4999 27.4964 37.2101 27.4964 35.6191C27.4964 34.0281 26.2066 32.7383 24.6156 32.7383Z" fill="#574D56"/>
<path d="M18.6678 34.3346H2.3494C1.23307 34.3346 0.328125 33.4296 0.328125 32.3133V31.4849C0.328125 31.3568 0.432031 31.2529 0.560133 31.2529H18.6678V34.3346Z" fill="#AD9CA9"/>
<path d="M17.2852 31.2529H18.669V34.3346H17.2852V31.2529Z" fill="#988393"/>
<path d="M15.496 31.2533H2.92734C2.47557 31.2533 2.10938 30.8871 2.10938 30.4354V17.8668C2.10938 17.415 2.47557 17.0488 2.92734 17.0488H15.4959C15.9477 17.0488 16.3139 17.415 16.3139 17.8668V30.4354C16.314 30.8871 15.9478 31.2533 15.496 31.2533Z" fill="#FDB441"/>
<path d="M15.4948 17.0479H14.0664C14.5182 17.0479 14.8844 17.414 14.8844 17.8658V30.4344C14.8844 30.8862 14.5182 31.2524 14.0664 31.2524H15.4947C15.9465 31.2524 16.3127 30.8862 16.3127 30.4344V17.8659C16.3128 17.4141 15.9466 17.0479 15.4948 17.0479Z" fill="#FEA713"/>
<path d="M10.1784 20.4136L9.37688 19.8541C9.27639 19.7839 9.14279 19.7839 9.0423 19.8541L8.24081 20.4136C8.0471 20.5488 7.78125 20.4103 7.78125 20.1739V17.0479H10.6379V20.1739C10.6379 20.4102 10.3721 20.5488 10.1784 20.4136Z" fill="#FFE177"/>
<path d="M10.6379 31.2533H7.78125V29.6986C7.78125 29.5156 7.92961 29.3672 8.11271 29.3672H10.3065C10.4896 29.3672 10.638 29.5156 10.638 29.6986V31.2533H10.6379Z" fill="#FFE177"/>
<path d="M4.10466 29.1029C3.7879 29.1029 3.53125 28.8462 3.53125 28.5295V28.2668C3.53125 27.95 3.78797 27.6934 4.10466 27.6934C4.42136 27.6934 4.67808 27.9501 4.67808 28.2668V28.5295C4.67815 28.8462 4.42143 29.1029 4.10466 29.1029Z" fill="#574D56"/>
<path d="M6.21794 29.1029C5.90118 29.1029 5.64453 28.8462 5.64453 28.5295V28.2668C5.64453 27.95 5.90125 27.6934 6.21794 27.6934C6.53471 27.6934 6.79136 27.9501 6.79136 28.2668V28.5295C6.79143 28.8462 6.53471 29.1029 6.21794 29.1029Z" fill="#574D56"/>
<path d="M26.6986 23.3242H23.125V26.5186C23.125 26.9609 23.4836 27.3196 23.926 27.3196H28.659L27.4024 23.8193C27.2957 23.5223 27.0141 23.3242 26.6986 23.3242Z" fill="#FAF7F8"/>
<path d="M25.8366 23.8193L27.0932 27.3196H28.6603L27.4037 23.8193C27.297 23.5223 27.0154 23.3242 26.6999 23.3242H25.1328C25.4484 23.3242 25.7301 23.5223 25.8366 23.8193Z" fill="#E5EEF9"/>
<path d="M9.21283 38.4999C10.8039 38.4999 12.0936 37.2101 12.0936 35.6191C12.0936 34.0281 10.8039 32.7383 9.21283 32.7383C7.62181 32.7383 6.33203 34.0281 6.33203 35.6191C6.33203 37.2101 7.62181 38.4999 9.21283 38.4999Z" fill="#6C5E69"/>
<path d="M9.20937 32.7383C8.90337 32.7383 8.60872 32.7864 8.33203 32.8748C9.49393 33.2459 10.3355 34.3341 10.3355 35.6191C10.3355 36.9041 9.49393 37.9922 8.33203 38.3634C8.60872 38.4518 8.90337 38.5 9.20937 38.5C10.8004 38.5 12.0902 37.2102 12.0902 35.6192C12.0902 34.0281 10.8004 32.7383 9.20937 32.7383Z" fill="#574D56"/>
<path d="M32.2485 30.515H31.1515C30.8348 30.515 30.5781 30.2583 30.5781 29.9416C30.5781 29.6249 30.8348 29.3682 31.1515 29.3682H32.2485C32.5653 29.3682 32.8219 29.6249 32.8219 29.9416C32.8219 30.2583 32.5652 30.515 32.2485 30.515Z" fill="#FFE177"/>
</g>
<defs>
<clipPath id="clip0_18479_27591">
<rect width="38" height="38" fill="white" transform="translate(0 0.5)"/>
</clipPath>
</defs>
</svg>
