<svg width="24" height="24" viewBox="0 0 24 24" fill="none" xmlns="http://www.w3.org/2000/svg">
<path d="M22 5.72069V1.99669C22 1.44469 21.553 0.996688 21 0.996688C20.447 0.996688 20 1.44469 20 1.99669V4.36269L14.797 0.851688C13.098 -0.294313 10.902 -0.294313 9.203 0.851688L2.203 5.57569C0.824 6.50669 0 8.05569 0 9.72069V18.9967C0 21.7537 2.243 23.9967 5 23.9967H8C8.553 23.9967 9 23.5487 9 22.9967V14.9967C9 14.4457 9.448 13.9967 10 13.9967H14C14.552 13.9967 15 14.4457 15 14.9967V22.9967C15 23.5487 15.447 23.9967 16 23.9967H19C21.757 23.9967 24 21.7537 24 18.9967V9.72069C24 8.13969 23.256 6.66269 22 5.72069ZM22 18.9967C22 20.6507 20.654 21.9967 19 21.9967H17V14.9967C17 13.3427 15.654 11.9967 14 11.9967H10C8.346 11.9967 7 13.3427 7 14.9967V21.9967H5C3.346 21.9967 2 20.6507 2 18.9967V9.72069C2 8.72169 2.494 7.79169 3.322 7.23369L10.322 2.50969C11.342 1.82169 12.658 1.82169 13.677 2.50969L20.677 7.23369C21.505 7.79169 21.999 8.72169 21.999 9.72069L22 18.9967Z" fill="#B26932"/>
</svg>
