<svg width="23" height="24" viewBox="0 0 23 24" fill="none" xmlns="http://www.w3.org/2000/svg">
<path d="M11.25 11C12.3378 11 13.4012 10.6774 14.3056 10.0731C15.2101 9.46874 15.9151 8.60976 16.3313 7.60476C16.7476 6.59977 16.8565 5.4939 16.6443 4.42701C16.4321 3.36011 15.9083 2.3801 15.1391 1.61092C14.3699 0.841726 13.3899 0.317902 12.323 0.105683C11.2561 -0.106535 10.1502 0.00238307 9.14524 0.418665C8.14025 0.834947 7.28126 1.5399 6.67692 2.44437C6.07257 3.34884 5.75 4.41221 5.75 5.5C5.75146 6.95825 6.33139 8.35635 7.36252 9.38748C8.39366 10.4186 9.79176 10.9985 11.25 11ZM11.25 1.83334C11.9752 1.83334 12.6841 2.04838 13.2871 2.45128C13.8901 2.85418 14.36 3.42683 14.6376 4.09683C14.9151 4.76683 14.9877 5.50407 14.8462 6.21533C14.7047 6.9266 14.3555 7.57994 13.8427 8.09273C13.3299 8.60552 12.6766 8.95474 11.9653 9.09622C11.2541 9.23769 10.5168 9.16508 9.84683 8.88756C9.17683 8.61004 8.60418 8.14007 8.20128 7.53709C7.79838 6.93411 7.58333 6.2252 7.58333 5.5C7.58333 4.52754 7.96964 3.59491 8.65728 2.90728C9.34491 2.21964 10.2775 1.83334 11.25 1.83334Z" fill="#666666"/>
<path d="M11.25 13C9.06271 13.0024 6.9657 13.8724 5.41905 15.419C3.8724 16.9657 3.00243 19.0627 3 21.25C3 21.4931 3.09658 21.7263 3.26849 21.8982C3.44039 22.0701 3.67355 22.1667 3.91667 22.1667C4.15978 22.1667 4.39294 22.0701 4.56485 21.8982C4.73676 21.7263 4.83333 21.4931 4.83333 21.25C4.83333 19.5482 5.50937 17.9161 6.71273 16.7127C7.91609 15.5094 9.54819 14.8333 11.25 14.8333C12.9518 14.8333 14.5839 15.5094 15.7873 16.7127C16.9906 17.9161 17.6667 19.5482 17.6667 21.25C17.6667 21.4931 17.7632 21.7263 17.9352 21.8982C18.1071 22.0701 18.3402 22.1667 18.5833 22.1667C18.8264 22.1667 19.0596 22.0701 19.2315 21.8982C19.4034 21.7263 19.5 21.4931 19.5 21.25C19.4976 19.0627 18.6276 16.9657 17.081 15.419C15.5343 13.8724 13.4373 13.0024 11.25 13Z" fill="#666666"/>
</svg>
